
      <svg data-logo="logo" xmlns="http://www.w3.org/2000/svg" viewBox="0 0 41 41">
        <g id="logogram" transform="translate(0, 0) rotate(0) "><path d="M18.529 14.2867C19.7573 13.9362 19.8794 10.5388 18.8016 6.69839C17.7239 2.85797 15.8544 0.0288177 14.6261 0.379292C13.3977 0.729766 13.2757 4.12714 14.3534 7.96759C15.4312 11.8079 17.3007 14.6371 18.529 14.2867Z" fill="black"/><path d="M26.1248 8.08707C27.2775 4.26882 27.2219 0.869674 26.0007 0.49485C24.7794 0.120017 22.855 2.91144 21.7023 6.72968C20.5497 10.5479 20.6052 13.9471 21.8265 14.3219C23.0477 14.6967 24.9722 11.9053 26.1248 8.08707Z" fill="black"/><path d="M15.7317 16.0579C16.5771 15.0934 14.858 12.1689 11.8921 9.5258C8.92614 6.88272 5.83646 5.52194 4.99109 6.48642C4.14571 7.45092 5.86478 10.3754 8.83075 13.0185C11.7967 15.6616 14.8864 17.0224 15.7317 16.0579Z" fill="black"/><path d="M31.5523 13.2463C34.5689 10.6622 36.3444 7.77208 35.5178 6.79115C34.6913 5.81019 31.5758 7.10985 28.5592 9.6939C25.5426 12.278 23.7672 15.1681 24.5937 16.1491C25.4202 17.13 28.5357 15.8304 31.5523 13.2463Z" fill="black"/><path d="M14.3271 19.0886C14.5213 17.8164 11.5072 16.2928 7.5951 15.6857C3.68285 15.0785 0.353953 15.6177 0.15976 16.8899C-0.0344332 18.1621 2.97961 19.6855 6.89183 20.2927C10.804 20.8999 14.1329 20.3607 14.3271 19.0886Z" fill="black"/><path d="M33.3469 20.5473C37.2702 20.018 40.3134 18.5548 40.1441 17.2789C39.9749 16.0031 36.6572 15.398 32.7338 15.9271C28.8106 16.4564 25.7673 17.9197 25.9366 19.1955C26.1059 20.4713 29.4235 21.0765 33.3469 20.5473Z" fill="black"/><path d="M9.1521 27.4532C12.7688 25.8311 15.28 23.5628 14.7611 22.3867C14.2424 21.2106 10.89 21.5722 7.2733 23.1943C3.65667 24.8164 1.1454 27.0847 1.66421 28.2608C2.18302 29.4369 5.53546 29.0753 9.1521 27.4532Z" fill="black"/><path d="M38.408 28.6255C38.9497 27.46 36.4833 25.1421 32.8991 23.4484C29.3149 21.7547 25.9702 21.3266 25.4285 22.4921C24.8868 23.6577 27.3532 25.9755 30.9374 27.6692C34.5215 29.3629 37.8663 29.7911 38.408 28.6255Z" fill="black"/><path d="M14.9029 32.2399C17.0755 28.9036 17.9717 25.6262 16.9047 24.9198C15.8375 24.2133 13.2112 26.3451 11.0387 29.6814C8.86604 33.0177 7.96985 36.2949 9.03689 37.0015C10.104 37.708 12.7302 35.5762 14.9029 32.2399Z" fill="black"/><path d="M30.8687 37.2253C31.9494 36.5402 31.1175 33.2456 29.0106 29.8668C26.9036 26.488 24.3195 24.3044 23.2388 24.9895C22.1582 25.6746 22.9901 28.9692 25.097 32.348C27.2039 35.7268 29.7881 37.9105 30.8687 37.2253Z" fill="black"/><path d="M22.3061 33.1463C22.3448 29.1553 21.3414 25.9098 20.0649 25.8972C18.7884 25.8846 17.7222 29.1098 17.6835 33.1007C17.6448 37.0918 18.6483 40.3374 19.9247 40.3499C21.2013 40.3625 22.2675 37.1374 22.3061 33.1463Z" fill="black"/></g>
        <g id="logotype" transform="translate(41, 20.5)"></g>
        
      </svg>
    